<?xml version="1.0" standalone="no"?><!DOCTYPE svg PUBLIC "-//W3C//DTD SVG 1.1//EN" "http://www.w3.org/Graphics/SVG/1.1/DTD/svg11.dtd"><svg t="1491310229343" class="icon" style="" viewBox="0 0 1024 1024" version="1.1" xmlns="http://www.w3.org/2000/svg" p-id="3751" xmlns:xlink="http://www.w3.org/1999/xlink" width="32" height="32"><defs><style type="text/css"></style></defs><path d="M89.986989 268.577968l143.286404 0L233.273393 143.204539c0-22.197558 9.060353-42.354644 23.653723-56.945967 14.600533-14.601556 34.756595-23.653723 56.945967-23.653723l0.008186 0c22.190395 0 42.345434 9.052167 56.93778 23.653723 14.601556 14.592346 23.661909 34.748409 23.661909 56.945967l0 125.373429 232.843092 0L627.32405 143.204539c0-22.197558 9.060353-42.354644 23.652699-56.945967 14.592346-14.601556 34.748409-23.653723 56.94699-23.653723l0 0c22.189372 0 42.345434 9.052167 56.944943 23.653723 14.59337 14.592346 23.653723 34.748409 23.653723 56.945967l0 125.373429 143.285381 0c14.84101 0 26.869974 12.036128 26.869974 26.868951L958.67776 931.293575c0 14.84101-12.028964 26.867928-26.869974 26.867928l-841.822844 0c-14.842033 0-26.868951-12.026918-26.868951-26.867928L63.115991 295.446919C63.118038 280.614096 75.145979 268.577968 89.986989 268.577968L89.986989 268.577968zM627.325074 322.316893l-232.843092 0 0 17.905812c0 22.197558-9.060353 42.354644-23.661909 56.954153-14.592346 14.591323-34.747385 23.653723-56.93778 23.653723l-0.008186 0c-22.190395 0-42.346457-9.061376-56.945967-23.653723-14.592346-14.600533-23.653723-34.756595-23.653723-56.954153l0-17.905812L116.856963 322.316893l0 582.111824 788.092106 0L904.949069 322.316893 788.524452 322.316893l0 17.912975c0 22.190395-9.060353 42.346457-23.653723 56.945967-14.600533 14.591323-34.756595 23.653723-56.944943 23.653723l0 0c-22.198581 0-42.355667-9.061376-56.94699-23.653723-14.59337-14.600533-23.652699-34.756595-23.652699-56.945967L627.326097 322.316893 627.325074 322.316893zM707.925786 116.335588 707.925786 116.335588c-7.364735 0-14.078647 3.031033-18.958794 7.91118-4.880147 4.888334-7.91118 11.594059-7.91118 18.957771l0 197.025329c0 7.356548 3.032056 14.07046 7.91118 18.949584 4.881171 4.880147 11.594059 7.91118 18.958794 7.91118l0 0c7.355525 0 14.068414-3.032056 18.949584-7.91118 4.888334-4.880147 7.918343-11.593036 7.918343-18.949584L734.793714 143.204539c0-7.364735-3.03001-14.069437-7.918343-18.957771C721.9942 119.366621 715.280288 116.335588 707.925786 116.335588L707.925786 116.335588zM313.882292 116.335588l-0.008186 0c-7.356548 0-14.07046 3.031033-18.950607 7.91118-4.880147 4.880147-7.918343 11.594059-7.918343 18.957771l0 197.017142c0 7.364735 3.038196 14.077623 7.918343 18.957771 4.881171 4.880147 11.594059 7.91118 18.950607 7.91118l0.008186 0c7.356548 0 14.069437-3.032056 18.949584-7.91118 4.881171-4.880147 7.910157-11.593036 7.910157-18.957771L340.742033 143.204539c0-7.364735-3.03001-14.077623-7.910157-18.957771C327.951729 119.366621 321.23884 116.335588 313.882292 116.335588L313.882292 116.335588zM278.538319 668.193365l142.241608 142.240585c10.491958 10.491958 27.504424 10.491958 37.996382 0l284.48424-284.483216c10.491958-10.491958 10.491958-27.503401 0-37.996382-10.492982-10.484795-27.505447-10.484795-37.997406 0L439.77863 753.447051 316.535725 630.194936c-10.492982-10.481725-27.504424-10.481725-37.996382 0C268.046361 640.687918 268.046361 657.700383 278.538319 668.193365z" p-id="3752" fill="#d4237a"></path></svg>